<svg width="32" height="32" viewBox="0 0 32 32" fill="none" xmlns="http://www.w3.org/2000/svg">
<g id="Alarm">
<path id="Vector" d="M15.9999 5.00007C13.6266 5.00007 11.3065 5.70386 9.3331 7.02243C7.35971 8.34101 5.82164 10.2152 4.91339 12.4079C4.00514 14.6006 3.7675 17.0134 4.23052 19.3412C4.69354 21.6689 5.83643 23.8071 7.51466 25.4853C9.19289 27.1636 11.3311 28.3065 13.6589 28.7695C15.9866 29.2325 18.3994 28.9949 20.5921 28.0866C22.7849 27.1784 24.659 25.6403 25.9776 23.6669C27.2962 21.6935 27.9999 19.3734 27.9999 17.0001C27.9963 13.8186 26.7309 10.7685 24.4812 8.51881C22.2316 6.26916 19.1814 5.00371 15.9999 5.00007ZM15.9999 27.0001C14.0221 27.0001 12.0887 26.4136 10.4442 25.3148C8.79975 24.2159 7.51803 22.6542 6.76115 20.8269C6.00427 18.9996 5.80624 16.989 6.19209 15.0492C6.57795 13.1094 7.53035 11.3275 8.92888 9.929C10.3274 8.53047 12.1092 7.57807 14.049 7.19221C15.9889 6.80636 17.9995 7.0044 19.8268 7.76127C21.654 8.51815 23.2158 9.79987 24.3146 11.4444C25.4135 13.0889 25.9999 15.0223 25.9999 17.0001C25.997 19.6513 24.9424 22.1931 23.0677 24.0678C21.193 25.9426 18.6512 26.9971 15.9999 27.0001ZM7.70745 4.70757L3.70745 8.70757C3.51981 8.89521 3.26531 9.00062 2.99995 9.00062C2.73458 9.00062 2.48009 8.89521 2.29245 8.70757C2.10481 8.51993 1.99939 8.26543 1.99939 8.00007C1.99939 7.7347 2.10481 7.48021 2.29245 7.29257L6.29245 3.29257C6.48009 3.10493 6.73458 2.99951 6.99995 2.99951C7.26531 2.99951 7.5198 3.10493 7.70745 3.29257C7.89509 3.48021 8.0005 3.7347 8.0005 4.00007C8.0005 4.26543 7.89509 4.51993 7.70745 4.70757ZM29.7074 8.70757C29.6146 8.80054 29.5043 8.8743 29.3829 8.92463C29.2615 8.97495 29.1314 9.00085 28.9999 9.00085C28.8685 9.00085 28.7384 8.97495 28.617 8.92463C28.4956 8.8743 28.3853 8.80054 28.2924 8.70757L24.2924 4.70757C24.1048 4.51993 23.9994 4.26543 23.9994 4.00007C23.9994 3.7347 24.1048 3.48021 24.2924 3.29257C24.4801 3.10493 24.7346 2.99951 24.9999 2.99951C25.2653 2.99951 25.5198 3.10493 25.7074 3.29257L29.7074 7.29257C29.8004 7.38544 29.8742 7.49573 29.9245 7.61713C29.9748 7.73853 30.0007 7.86865 30.0007 8.00007C30.0007 8.13148 29.9748 8.26161 29.9245 8.38301C29.8742 8.50441 29.8004 8.6147 29.7074 8.70757ZM22.9999 16.0001C23.2652 16.0001 23.5195 16.1054 23.7071 16.293C23.8946 16.4805 23.9999 16.7349 23.9999 17.0001C23.9999 17.2653 23.8946 17.5196 23.7071 17.7072C23.5195 17.8947 23.2652 18.0001 22.9999 18.0001H15.9999C15.7347 18.0001 15.4804 17.8947 15.2928 17.7072C15.1053 17.5196 14.9999 17.2653 14.9999 17.0001V10.0001C14.9999 9.73485 15.1053 9.4805 15.2928 9.29296C15.4804 9.10542 15.7347 9.00007 15.9999 9.00007C16.2652 9.00007 16.5195 9.10542 16.7071 9.29296C16.8946 9.4805 16.9999 9.73485 16.9999 10.0001V16.0001H22.9999Z" fill="#583DFF"/>
</g>
</svg>
