<svg width="87" height="58" viewBox="0 0 87 58" fill="none" xmlns="http://www.w3.org/2000/svg">
<g id="Group 1">
<path id="Vector" d="M47.3491 12.165V28.2251L46.3586 27.4652L39.8086 22.4572L39.5619 22.2692V15.116L20.2535 32.4885H33.8771V39.611H0L1.32442 38.5058L46.2903 0.848079L47.3036 0V11.6929C47.3567 11.8618 47.3566 12.046 47.3566 12.1611L47.3491 12.165Z" fill="#583DFF"/>
<path id="Vector_2" d="M86.4062 17.3916L85.1007 18.4968L40.6282 56.1507L39.6112 57.0103V45.3096C39.558 45.137 39.558 44.9528 39.558 44.8376V29.2803L40.5485 30.0362L47.0985 35.0442L47.3451 35.2323V41.8174L65.2534 24.514H53.0337V17.3916H86.4024H86.4062Z" fill="#583DFF"/>
</g>
</svg>
